<svg width="295" height="120" viewBox="0 0 295 120" fill="none" xmlns="http://www.w3.org/2000/svg">
<path d="M31.1361 101.292H18.9583C18.4598 101.292 18.0325 101.505 17.7477 101.789C17.3916 102.145 17.2491 102.571 17.2491 103.069C17.2491 103.566 17.4628 103.993 17.7477 104.348C18.1037 104.704 18.531 104.846 18.9583 104.846H31.1361C31.6346 104.846 32.0619 104.633 32.418 104.348C32.7741 103.993 32.9165 103.566 32.9165 103.069C32.9165 102.571 32.7029 102.145 32.418 101.789C32.0619 101.505 31.6346 101.292 31.1361 101.292Z" fill="#F2F3FA"/>
<path d="M12.9049 104.846C13.4034 104.846 13.8307 104.704 14.1868 104.348C14.5428 103.993 14.7565 103.566 14.7565 103.069V66.6718C14.7565 66.1742 14.5428 65.7476 14.1868 65.3922C13.5458 64.7524 12.4064 64.7524 11.6942 65.3922C11.3382 65.7476 11.1245 66.1031 11.1245 66.6718V103.069C11.1245 103.566 11.3382 103.993 11.6942 104.348C11.9791 104.704 12.4064 104.846 12.9049 104.846Z" fill="#F2F3FA"/>
<path d="M31.1361 107.405H12.905C12.4065 107.405 11.9792 107.619 11.6943 107.903C11.3382 108.258 11.1958 108.685 11.1958 109.182C11.1958 109.68 11.4094 110.107 11.6943 110.462C12.0504 110.818 12.4777 110.96 12.905 110.96H31.1361C31.6346 110.96 32.0619 110.746 32.4179 110.462C32.774 110.107 32.9164 109.68 32.9164 109.182C32.9164 108.685 32.7028 108.258 32.4179 107.903C32.0619 107.547 31.6346 107.405 31.1361 107.405Z" fill="#F2F3FA"/>
<path d="M5.56972 65.3907C5.21365 65.7462 5 66.1727 5 66.6703V109.181C5 109.679 5.21365 110.034 5.56972 110.389C5.9258 110.745 6.35309 110.887 6.8516 110.887C7.3501 110.887 7.77739 110.745 8.13347 110.389C8.48955 110.034 8.70319 109.608 8.70319 109.11V66.5992C8.70319 66.1016 8.48955 65.7462 8.13347 65.3907C7.42132 64.7509 6.28187 64.7509 5.56972 65.3907Z" fill="#F2F3FA"/>
<path d="M67.5983 74.5625C68.0968 74.5625 68.5241 74.3493 68.8802 73.9938C69.2363 73.6384 69.3787 73.2119 69.3787 72.7143C69.3787 72.2166 69.2363 71.7901 68.8802 71.4347C68.5241 71.0792 68.0968 70.866 67.5983 70.866H58.4828C57.9843 70.866 57.557 71.0792 57.2009 71.3636C56.8448 71.719 56.7024 72.1456 56.7024 72.6432V102.998C56.7024 103.495 56.916 103.922 57.2009 104.277C57.557 104.633 57.9843 104.775 58.4828 104.775H67.5983C68.0968 104.775 68.5241 104.562 68.8802 104.206C69.2363 103.851 69.3787 103.424 69.3787 102.927C69.3787 102.429 69.2363 102.003 68.8802 101.647C68.5241 101.292 68.0968 101.078 67.5983 101.078H60.2632V74.3493H67.5983V74.5625Z" fill="#F2F3FA"/>
<path d="M67.5983 64.8945H43.2427C42.7442 64.8945 42.3169 65.1078 41.9608 65.4632C41.6047 65.8187 41.4623 66.2452 41.4623 66.7428C41.4623 67.1693 41.6047 67.5959 41.9608 67.9513C42.3169 68.3067 42.7442 68.52 43.2427 68.52H67.5983C68.0968 68.52 68.5241 68.3067 68.8802 67.9513C69.165 67.5959 69.3787 67.1693 69.3787 66.7428C69.3787 66.2452 69.2362 65.8187 68.8802 65.4632C68.5241 65.1078 68.0968 64.8945 67.5983 64.8945Z" fill="#F2F3FA"/>
<path d="M43.2427 101.363C42.7442 101.363 42.3169 101.576 41.9608 101.931C41.6047 102.287 41.4623 102.713 41.4623 103.211C41.4623 103.709 41.6047 104.135 41.9608 104.491C42.3169 104.846 42.7442 105.059 43.2427 105.059H52.3582C52.8567 105.059 53.284 104.846 53.6401 104.491C53.9962 104.135 54.1386 103.709 54.1386 103.211V72.8563C54.1386 72.3587 53.9962 71.9322 53.6401 71.5768C53.284 71.2213 52.8567 71.0081 52.3582 71.0081H43.2427C42.7442 71.0081 42.3169 71.2213 41.9608 71.5768C41.6047 71.9322 41.4623 72.3587 41.4623 72.8563C41.4623 73.354 41.6047 73.7805 41.9608 74.1359C42.3169 74.4914 42.7442 74.7046 43.2427 74.7046H50.5778V101.434H43.2427V101.363Z" fill="#F2F3FA"/>
<path d="M67.5983 107.405H43.2427C42.7442 107.405 42.3169 107.619 41.9608 107.974C41.6047 108.329 41.4623 108.756 41.4623 109.254C41.4623 109.751 41.6047 110.178 41.9608 110.533C42.3169 110.889 42.7442 111.102 43.2427 111.102H67.5983C68.0968 111.102 68.5241 110.889 68.8802 110.533C69.2362 110.178 69.3787 109.751 69.3787 109.254C69.3787 108.756 69.2362 108.329 68.8802 107.974C68.5241 107.619 68.0968 107.405 67.5983 107.405Z" fill="#F2F3FA"/>
<path d="M104.06 101.363H87.6098V90.9838C87.6098 90.4862 87.3961 90.0596 87.04 89.7042C86.3279 89.0644 85.1884 89.0644 84.5475 89.7042C84.1914 90.0596 83.9778 90.4862 83.9778 90.9838V103.14C83.9778 103.637 84.1914 104.064 84.4763 104.419C84.8324 104.775 85.2597 104.917 85.7582 104.917H102.209V107.405H85.7582C85.2597 107.405 84.8324 107.618 84.4763 107.974C84.1202 108.329 83.9778 108.756 83.9778 109.253C83.9778 109.751 84.1202 110.178 84.4763 110.533C84.8324 110.888 85.2597 111.102 85.7582 111.102H103.989C104.488 111.102 104.915 110.888 105.271 110.604C105.627 110.32 105.77 109.822 105.77 109.325V103.282C105.77 102.784 105.556 102.358 105.271 102.002C104.986 101.505 104.559 101.363 104.06 101.363Z" fill="#F2F3FA"/>
<path d="M78.4943 65.4632C78.1382 65.8187 77.9246 66.2452 77.9246 66.7428V109.253C77.9246 109.751 78.1382 110.178 78.4943 110.533C78.8504 110.889 79.2776 111.031 79.7762 111.031C80.2747 111.031 80.7019 110.889 81.058 110.533C81.4141 110.178 81.6277 109.751 81.6277 109.253V66.7428C81.6277 66.2452 81.4141 65.8187 81.058 65.4632C80.3459 64.8235 79.2064 64.8235 78.4943 65.4632Z" fill="#F2F3FA"/>
<path d="M104.06 64.8945H85.8293C85.3308 64.8945 84.9035 65.1078 84.5475 65.4632C84.1914 65.8187 84.049 66.2452 84.049 66.7428C84.049 67.1693 84.1914 67.5959 84.5475 67.9513C84.9035 68.3068 85.3308 68.52 85.8293 68.52H102.28V71.0081H85.8293C85.3308 71.0081 84.9035 71.2214 84.5475 71.5057C84.1914 71.8612 84.049 72.2877 84.049 72.7853V84.9414C84.049 85.439 84.2626 85.8655 84.5475 86.2209C84.9035 86.5764 85.3308 86.7186 85.8293 86.7186H96.2268V89.2066H91.9538C91.4553 89.2066 91.028 89.4199 90.672 89.7753C90.3159 90.1308 90.1735 90.5573 90.1735 91.0549C90.1735 91.5526 90.3159 91.9791 90.672 92.3345C91.028 92.69 91.4553 92.9032 91.9538 92.9032H98.0071C98.5056 92.9032 98.9329 92.69 99.289 92.4056C99.6451 92.0502 99.7875 91.6236 99.7875 91.126V85.0835C99.7875 84.5859 99.5739 84.1594 99.289 83.804C98.9329 83.4485 98.5056 83.3063 98.0071 83.3063H87.6097V74.7758H104.06C104.559 74.7758 104.986 74.5625 105.342 74.2782C105.698 73.9227 105.841 73.4962 105.841 72.9986V66.9561C105.841 66.4585 105.627 66.0319 105.342 65.6765C104.986 65.1078 104.559 64.8945 104.06 64.8945Z" fill="#F2F3FA"/>
<path d="M123.573 86.1498C123.929 85.7944 124.143 85.3678 124.143 84.8702V74.4914H128.416C129.627 74.4914 130.624 74.9179 131.478 75.771C132.333 76.624 132.689 77.6192 132.689 78.7567C132.689 79.9652 132.262 80.8893 131.478 81.7424C130.624 82.5954 129.627 83.0219 128.416 83.0219C127.917 83.0219 127.49 83.2352 127.134 83.5906C126.778 83.9461 126.636 84.3726 126.636 84.8702C126.636 85.3678 126.778 85.7944 127.134 86.1498C127.49 86.5053 127.846 86.6474 128.345 86.7185H128.416C130.552 86.7185 132.475 85.9366 133.971 84.3726C135.466 82.8087 136.321 80.9604 136.321 78.8277C136.321 76.6951 135.537 74.7757 133.971 73.2829C132.404 71.7189 130.552 71.0081 128.416 71.0081H122.363C121.864 71.0081 121.437 71.2213 121.081 71.5057C120.725 71.8611 120.582 72.2876 120.582 72.7853V84.9413C120.582 85.4389 120.796 85.8655 121.152 86.2209C121.793 86.7896 122.861 86.7896 123.573 86.1498Z" fill="#F2F3FA"/>
<path d="M115.028 65.3922C114.672 65.7476 114.458 66.1742 114.458 66.6718V109.182C114.458 109.68 114.672 110.107 115.028 110.462C115.384 110.817 115.811 110.96 116.309 110.96C116.808 110.96 117.235 110.817 117.591 110.462C117.947 110.107 118.161 109.68 118.161 109.182V66.6718C118.161 66.1742 117.947 65.7476 117.591 65.3922C116.808 64.7524 115.669 64.7524 115.028 65.3922Z" fill="#F2F3FA"/>
<path d="M138.244 68.9465C135.395 66.2452 132.119 64.8945 128.416 64.8945H122.363C121.864 64.8945 121.437 65.1078 121.081 65.4632C120.725 65.8187 120.582 66.2452 120.582 66.7428C120.582 67.1693 120.725 67.5959 121.081 67.9513C121.437 68.3068 121.864 68.52 122.363 68.52H128.416C130.339 68.52 132.048 69.0176 133.615 69.9418C135.182 70.8659 136.463 72.1455 137.389 73.7095C138.315 75.2734 138.814 76.9795 138.814 78.8989C138.814 81.8846 137.674 84.4437 135.324 86.6475C134.825 87.1451 134.683 87.6427 134.683 87.9982C134.683 88.4958 134.897 88.9934 135.253 89.3488C137.603 91.5526 138.742 94.1117 138.742 97.0974C138.742 99.0168 138.244 100.723 137.318 102.287C136.392 103.851 135.11 105.13 133.615 106.055C132.048 106.979 130.339 107.476 128.345 107.476H122.292C121.793 107.476 121.366 107.69 121.01 108.045C120.654 108.4 120.511 108.827 120.511 109.325C120.511 109.822 120.654 110.249 121.01 110.604C121.366 110.96 121.793 111.173 122.292 111.173H128.345C130.909 111.173 133.259 110.533 135.395 109.253C137.46 108.045 139.17 106.339 140.452 104.206C141.733 102.074 142.374 99.7277 142.374 97.1685C142.374 93.8274 141.235 90.7706 138.956 88.0692C141.235 85.3679 142.374 82.3111 142.374 78.97C142.374 75.1312 141.021 71.7901 138.244 68.9465Z" fill="#F2F3FA"/>
<path d="M123.573 104.349C123.93 103.993 124.143 103.567 124.143 103.069V92.6901H128.416C129.627 92.6901 130.695 93.1166 131.478 93.9696C132.333 94.8227 132.689 95.7469 132.689 96.9553C132.689 98.1638 132.262 99.088 131.478 99.941C130.624 100.794 129.627 101.221 128.416 101.221C127.918 101.221 127.49 101.434 127.134 101.789C126.778 102.145 126.636 102.571 126.636 103.069C126.636 103.567 126.778 103.993 127.134 104.349C127.49 104.704 127.918 104.917 128.416 104.917C130.624 104.846 132.475 104.064 133.971 102.571C135.466 101.078 136.25 99.2302 136.25 97.0975C136.25 94.9649 135.466 93.0455 133.9 91.5526C132.333 89.9887 130.481 89.2778 128.345 89.2778H122.292C121.793 89.2778 121.366 89.4911 121.01 89.7754C120.654 90.1309 120.511 90.5574 120.511 91.055V103.211C120.511 103.709 120.725 104.135 121.081 104.491C121.722 104.988 122.933 104.988 123.573 104.349Z" fill="#F2F3FA"/>
<path d="M178.338 65.4632C177.982 65.1078 177.554 64.9656 177.056 64.9656H158.825C158.326 64.9656 157.899 65.1788 157.543 65.5343C157.187 65.8897 157.044 66.3162 157.044 66.8139C157.044 67.2404 157.187 67.6669 157.543 68.0224C157.899 68.3778 158.326 68.5911 158.825 68.5911H175.276V71.0791H158.825C158.326 71.0791 157.899 71.2924 157.543 71.5768C157.187 71.9322 157.044 72.3587 157.044 72.8563V85.0124C157.044 85.51 157.258 85.9366 157.543 86.292C157.899 86.6474 158.326 86.7896 158.825 86.7896H169.222V89.2777H164.949C164.451 89.2777 164.024 89.491 163.667 89.8464C163.311 90.2018 163.169 90.6284 163.169 91.126C163.169 91.6236 163.311 92.0501 163.667 92.4056C164.024 92.761 164.451 92.9743 164.949 92.9743H171.003C171.501 92.9743 171.928 92.761 172.284 92.4767C172.641 92.1212 172.783 91.6947 172.783 91.1971V85.1546C172.783 84.657 172.569 84.2304 172.284 83.875C171.928 83.5196 171.501 83.3774 171.003 83.3774H160.605V74.8468H177.056C177.554 74.8468 177.982 74.6336 178.338 74.3492C178.694 73.9938 178.836 73.5672 178.836 73.0696V67.0271C178.836 66.2452 178.694 65.8186 178.338 65.4632Z" fill="#F2F3FA"/>
<path d="M151.49 65.4632C151.134 65.8187 150.92 66.2452 150.92 66.7428V109.253C150.92 109.751 151.134 110.178 151.49 110.533C151.846 110.889 152.273 111.031 152.772 111.031C153.27 111.031 153.697 110.889 154.054 110.533C154.41 110.178 154.623 109.751 154.623 109.253V66.7428C154.623 66.2452 154.41 65.8187 154.054 65.4632C153.27 64.8235 152.131 64.8235 151.49 65.4632Z" fill="#F2F3FA"/>
<path d="M177.056 101.363H160.605V90.9838C160.605 90.4862 160.392 90.0596 160.036 89.7042C159.323 89.0644 158.184 89.0644 157.543 89.7042C157.187 90.0596 156.973 90.4862 156.973 90.9838V103.14C156.973 103.637 157.187 104.064 157.472 104.419C157.828 104.775 158.255 104.917 158.754 104.917H175.204V107.405H158.825C158.326 107.405 157.899 107.618 157.543 107.974C157.187 108.329 157.044 108.756 157.044 109.253C157.044 109.751 157.187 110.178 157.543 110.533C157.899 110.888 158.326 111.102 158.825 111.102H177.056C177.555 111.102 177.982 110.888 178.338 110.604C178.694 110.249 178.836 109.822 178.836 109.325V103.282C178.836 102.784 178.623 102.358 178.338 102.002C177.982 101.505 177.555 101.363 177.056 101.363Z" fill="#F2F3FA"/>
<path d="M199.845 59.3496L188.664 56.5061C186.029 55.7952 184.391 53.0939 185.103 50.4636C185.815 47.8334 188.522 46.1984 191.157 46.9092L192.652 47.2647L193.008 45.7007C193.72 43.0705 196.427 41.4355 199.062 42.1463C201.696 42.8572 203.334 45.5586 202.622 48.1888L199.845 59.3496Z" fill="#F2F3FA"/>
<path d="M236.45 64.0415V117.358H252.188C257.458 117.358 261.731 113.092 261.731 107.832V64.0415H236.45Z" fill="#53BBA9"/>
<path d="M252.259 119.917H233.957V61.5535H264.295V107.832C264.295 114.514 258.882 119.917 252.259 119.917ZM239.013 114.87H252.259C256.176 114.87 259.31 111.742 259.31 107.832V66.6007H239.013V114.87Z" fill="#F2F3FA"/>
<path d="M189.875 64.0415V107.832C189.875 113.092 194.148 117.358 199.418 117.358H216.011V64.0415H189.875Z" fill="#53BBA9"/>
<path d="M218.575 119.917H199.489C192.795 119.917 187.382 114.514 187.382 107.832V61.5535H218.575V119.917ZM192.439 66.6007V107.832C192.439 111.742 195.572 114.87 199.489 114.87H213.518V66.6007H192.439Z" fill="#F2F3FA"/>
<path d="M236.45 64.0415H216.011V117.358H236.45V64.0415Z" fill="#53BBA9"/>
<path d="M239.013 119.917H213.518V61.5535H239.013V119.917ZM218.575 114.87H233.957V66.6007H218.575V114.87Z" fill="#F2F3FA"/>
<path d="M183.038 40.9378L157.258 36.3171C150.706 35.1086 146.291 28.8529 147.502 22.3128C148.712 15.7727 154.979 11.3652 161.531 12.5737L163.525 12.9291L163.881 10.9387C165.092 4.39858 171.359 -0.00888324 177.911 1.19961C184.462 2.40811 188.878 8.66386 187.667 15.204L183.038 40.9378Z" fill="#F2F3FA"/>
<path d="M257.458 49.6817L261.09 51.8143C276.9 61.7667 283.95 29.4216 257.743 45.6297C256.247 46.6249 255.82 48.7575 257.458 49.6817Z" fill="#53BBA9"/>
<path d="M267.143 56.2929C264.936 56.2929 262.514 55.6531 259.879 53.947L256.247 51.8854C254.823 51.0324 253.968 49.6106 253.897 48.0467C253.897 46.2695 254.894 44.5633 256.532 43.497C268.924 35.8195 274.194 38.5919 276.188 41.0089C278.751 43.9946 278.324 48.9708 275.191 52.5963C273.339 54.6579 270.562 56.2929 267.143 56.2929ZM259.167 47.7623L262.443 49.6817C267.357 52.8096 270.277 50.4637 271.274 49.2552C272.84 47.478 273.054 45.1321 272.271 44.2079C271.345 43.1416 267.499 42.644 259.167 47.7623ZM258.74 47.478L257.458 49.6817L258.74 47.478Z" fill="#F2F3FA"/>
<path d="M248.77 45.2742L252.544 47.1225C254.253 47.9755 255.82 46.4827 255.677 44.5633C254.467 13.7822 231.678 37.8099 248.77 45.2742Z" fill="#53BBA9"/>
<path d="M253.612 49.8949C252.9 49.8949 252.188 49.7527 251.547 49.3973L247.773 47.549C240.509 44.35 239.156 38.5208 240.295 34.1844C241.506 29.5637 245.423 26.3647 249.339 26.7913C252.402 27.1467 257.672 29.8481 258.313 44.4211C258.384 46.3405 257.529 48.1177 256.034 49.1129C255.25 49.6105 254.467 49.8949 253.612 49.8949ZM248.627 31.8385C247.417 31.8385 245.779 33.2603 245.209 35.464C244.782 36.9569 244.497 40.6534 249.838 42.9283L249.909 42.9993L253.256 44.6344C252.829 34.8953 250.265 31.9807 248.77 31.8385C248.698 31.8385 248.698 31.8385 248.627 31.8385Z" fill="#F2F3FA"/>
<path d="M283.523 63.8283L263.227 53.094L255.749 66.6718L250.123 63.7572L282.526 80.9605L286.514 73.4963C288.294 70.0129 287.012 65.6766 283.523 63.8283Z" fill="#53BBA9"/>
<path d="M283.523 84.3015L248.912 65.9608L251.262 61.4823L254.681 63.2595L262.158 49.6816L284.662 61.6244C289.363 64.1125 291.143 69.9417 288.65 74.7046L283.523 84.3015ZM259.167 65.6764L281.458 77.4771L284.235 72.2876C285.446 70.0128 284.591 67.2404 282.312 66.0319L264.224 56.5061L259.167 65.6764Z" fill="#F2F3FA"/>
<path d="M252.117 47.1935L226.337 33.5446C222.847 31.6963 218.503 33.047 216.652 36.4592L212.664 43.9234L238.942 57.8567L246.491 44.2789L252.117 47.1935Z" fill="#53BBA9"/>
<path d="M240.01 61.1979L209.317 44.9187L214.444 35.2508C215.655 32.9759 217.649 31.3409 220.141 30.5589C222.634 29.777 225.198 30.0613 227.476 31.2698L253.256 44.9187L250.906 49.3973L247.488 47.6201L240.01 61.1979ZM216.153 42.8572L238.016 54.4445L243.073 45.2742L225.126 35.7484C224.058 35.1797 222.776 35.0375 221.637 35.3929C220.426 35.7484 219.5 36.5303 218.931 37.6678L216.153 42.8572Z" fill="#F2F3FA"/>
<path d="M238.942 57.9278L250.123 63.757L239.013 57.8567L238.942 57.9278Z" fill="#53BBA9"/>
<path d="M248.983 65.9609L235.524 58.9231L237.945 54.4446L251.333 61.4823L248.983 65.9609Z" fill="#F2F3FA"/>
<path d="M263.298 53.0228L252.117 47.1936L263.226 53.0939L263.298 53.0228Z" fill="#53BBA9"/>
<path d="M264.223 56.435L250.906 49.3972L253.256 44.9187L266.716 51.9564L264.223 56.435Z" fill="#F2F3FA"/>
<path d="M263.226 53.0937L252.117 47.1934L246.491 44.2788L239.013 57.8566L250.123 63.7569L255.749 66.6716L263.226 53.0937Z" fill="#53BBA9"/>
<path d="M256.746 70.0128L248.912 65.9608L235.524 58.852L245.423 40.8667L253.256 44.9187L266.645 52.0275L256.746 70.0128ZM242.432 56.7904L254.752 63.2594L259.808 54.0891L247.488 47.6201L242.432 56.7904Z" fill="#F2F3FA"/>
</svg>
